<?xml version="1.0"?>
<svg xmlns="http://www.w3.org/2000/svg" xmlns:xlink="http://www.w3.org/1999/xlink" xmlns:svgjs="http://svgjs.com/svgjs" version="1.1" width="512" height="512" x="0" y="0" viewBox="0 0 451.5625 451" style="enable-background:new 0 0 512 512" xml:space="preserve" class=""><g><path xmlns="http://www.w3.org/2000/svg" d="m424.132812 66.898438h-120.914062v-38.011719c0-15.773438-12.835938-28.605469-28.605469-28.605469h-97.757812c-15.769531 0-28.601563 12.832031-28.601563 28.605469v38.011719h-120.824218c-15.125 0-27.429688 12.300781-27.429688 27.425781v282.671875c0 15.125 12.304688 27.429687 27.429688 27.429687h396.703124c15.125 0 27.429688-12.304687 27.429688-27.429687v-282.671875c0-15.125-12.304688-27.425781-27.429688-27.425781zm9.144532 27.425781v71.90625c-40.921875-4.457031-73.511719-38.445313-77.632813-81.046875h68.488281c5.042969 0 9.144532 4.097656 9.144532 9.140625zm0 90.21875v102.234375c-50.976563 4.550781-91.644532 46.664062-95.914063 99.359375h-223.160156c-4.265625-52.695313-44.9375-94.808594-95.917969-99.359375v-102.234375c50.980469-4.550781 91.652344-46.664063 95.917969-99.359375h223.160156c4.269531 52.695312 44.9375 94.808594 95.914063 99.359375zm-266.738282-155.65625c0-5.6875 4.628907-10.320313 10.316407-10.320313h97.757812c5.691407 0 10.320313 4.632813 10.320313 10.320313v38.011719h-118.394532zm-139.109374 56.296875h68.492187c-4.121094 42.601562-36.714844 76.589844-77.636719 81.046875v-71.90625c0-5.042969 4.101563-9.140625 9.144532-9.140625zm-9.144532 291.8125v-71.90625c40.921875 4.457031 73.515625 38.445312 77.636719 81.046875h-68.492187c-5.042969 0-9.144532-4.097657-9.144532-9.140625zm405.847656 9.140625h-68.488281c4.121094-42.601563 36.710938-76.589844 77.632813-81.046875v71.90625c0 5.042968-4.101563 9.140625-9.144532 9.140625zm0 0" fill="#ffffff" data-original="#000000" style="" class=""/><path xmlns="http://www.w3.org/2000/svg" d="m225.726562 175.246094c14.199219 0 25.746094 11.5 25.746094 25.632812 0 5.054688 4.09375 9.144532 9.144532 9.144532 5.046874 0 9.140624-4.089844 9.140624-9.144532 0-21.085937-14.988281-38.722656-34.886718-42.9375v-15.140625c0-5.054687-4.09375-9.144531-9.144532-9.144531-5.046874 0-9.140624 4.089844-9.140624 9.144531v15.148438c-19.839844 4.21875-34.78125 21.855469-34.78125 42.929687 0 24.214844 19.703124 43.921875 43.921874 43.921875 14.199219 0 25.746094 11.5 25.746094 25.640625 0 14.132813-11.546875 25.632813-25.746094 25.632813-14.136718 0-25.636718-11.5-25.636718-25.632813 0-5.054687-4.09375-9.140625-9.144532-9.140625-5.046874 0-9.140624 4.085938-9.140624 9.140625 0 21.078125 14.941406 38.710938 34.78125 42.933594v15.148438c0 5.050781 4.09375 9.140624 9.140624 9.140624 5.050782 0 9.144532-4.089843 9.144532-9.140624v-15.144532c19.898437-4.210937 34.886718-21.851562 34.886718-42.9375 0-24.222656-19.753906-43.929687-44.03125-43.929687-14.136718 0-25.636718-11.5-25.636718-25.632813 0-14.132812 11.5-25.632812 25.636718-25.632812zm0 0" fill="#ffffff" data-original="#000000" style="" class=""/></g></svg>
