<?xml version="1.0"?>
<svg xmlns="http://www.w3.org/2000/svg" id="outline" viewBox="0 0 512 512" width="512" height="512"><path d="M419.31421,208.00024l3.71606-3.71606a30.6276,30.6276,0,0,0-43.31445-43.31348L356.68652,184H328.56836A47.689,47.689,0,0,0,294.627,198.05908L259.7168,232.97021A39.734,39.734,0,0,0,248,261.25488V292.686l-8,8V280a8.00008,8.00008,0,0,0-8-8H200a8.00008,8.00008,0,0,0-8,8v32a8.00008,8.00008,0,0,0,8,8h28.90015l-5.33326,16H200a8.00008,8.00008,0,0,0-8,8v32a8.00008,8.00008,0,0,0,8,8h32a8.00008,8.00008,0,0,0,8-8V363.09937l16-5.33326V368h32V352H273.29834l1.23193-.41064a8.0039,8.0039,0,0,0,3.127-1.93262l13.04931-13.04932a30.57094,30.57094,0,0,0,41.28638-1.30054L360,363.314V496h16V392H480V496h16V344.333a143.05875,143.05875,0,0,0-42.17578-101.82324ZM349.25488,248a39.74371,39.74371,0,0,0-28.28515,11.71582l-32,32a30.59276,30.59276,0,0,0-7.37867,31.37915l-9.59082,9.59131-20.68652-20.68652L348,215.31409,368.686,236l-12,12ZM243.49609,326.81006l13.6941,13.69409-20.54078,6.84692ZM380,224.68616l-20.686-20.686,12.68628-12.68591,20.686,20.686ZM401.37305,168a14.62758,14.62758,0,0,1,10.34277,24.9707l-7.71558,7.71558-20.686-20.686,7.71606-7.71606A14.529,14.529,0,0,1,401.37305,168ZM264,261.25488a23.83777,23.83777,0,0,1,7.03027-16.9707l34.91016-34.91113A31.793,31.793,0,0,1,328.56836,200h12.11816L264,276.68616ZM224,304H208V288h16Zm-16,64V352h10.23364l-1.82348,5.47021A8.0001,8.0001,0,0,0,224,368H208Zm272,8H376V360a8.00035,8.00035,0,0,0-2.34277-5.65674L343.314,323.99988l7.98-7.97986A61.75463,61.75463,0,0,0,396.84473,336H416V320H396.84473a45.80548,45.80548,0,0,1-38.18848-20.4375,8.00026,8.00026,0,0,0-12.31348-1.21924l-25.373,25.37256a14.62724,14.62724,0,0,1-20.68555-20.68652l31.999-31.99951A23.84779,23.84779,0,0,1,349.25488,264H408V248H379.314l28.68628-28.68591,34.50953,34.50915A127.1621,127.1621,0,0,1,480,344.333Z"/><path d="M456,208V64a8.00008,8.00008,0,0,0-8-8H325.41626l-8.04614-20.11572a31.63274,31.63274,0,0,0-58.74024,0L250.58374,56H128a8.00008,8.00008,0,0,0-8,8V244.37036L69.65918,288.41748A39.99989,39.99989,0,0,0,56,318.52051V380.686L18.34277,418.34326l11.31446,11.31348,40-40A8.00035,8.00035,0,0,0,72,384V318.52051a24.00117,24.00117,0,0,1,8.19531-18.062L120,265.62964V308.6864L90.34277,338.34326l11.31446,11.31348,41.373-41.37256a14.62724,14.62724,0,0,1,20.68555,20.68652l-41.37305,41.37256A8.00035,8.00035,0,0,0,120,376v14.70166a27.06458,27.06458,0,0,1-18.5293,25.709l5.0586,15.17872A43.10415,43.10415,0,0,0,120,424.22681V448a8.00008,8.00008,0,0,0,8,8h44.686l-26.34327,26.34326,11.31446,11.31348L195.314,456H344V440H136V379.314l16-15.99975V416a8.00008,8.00008,0,0,0,8,8H344V408H168V347.31445l7.03027-7.03027A30.62172,30.62172,0,0,0,168,291.72522V104h40.43872l8.20776,19.15137A8.00075,8.00075,0,0,0,224,128H352a8.00075,8.00075,0,0,0,7.35352-4.84863L367.56128,104H408v32h16V96a8.00008,8.00008,0,0,0-8-8H374.41846l6.85693-16H440V208ZM273.48535,41.82666a15.6329,15.6329,0,0,1,29.0293,0L308.18384,56H267.81616ZM160,88a8.00008,8.00008,0,0,0-8,8V288.03345a30.35049,30.35049,0,0,0-16,5.36975V72h58.72461l6.85693,16Zm186.72461,24H229.27539L212.13257,72H363.86743Z"/><path d="M240,152a8.00008,8.00008,0,0,0-8-8H200a8.00008,8.00008,0,0,0-8,8v32a8.00008,8.00008,0,0,0,8,8h32a8.00008,8.00008,0,0,0,8-8Zm-16,24H208V160h16Z"/><path d="M232,208H200a8.00008,8.00008,0,0,0-8,8v32a8.00008,8.00008,0,0,0,8,8h32a8.00008,8.00008,0,0,0,8-8V216A8.00008,8.00008,0,0,0,232,208Zm-8,32H208V224h16Z"/><rect x="288" y="160" width="48" height="16"/><rect x="256" y="160" width="16" height="16"/><rect x="304" y="352" width="32" height="16"/></svg>
