<?xml version="1.0" encoding="iso-8859-1"?>
<!-- Generator: Adobe Illustrator 19.0.0, SVG Export Plug-In . SVG Version: 6.00 Build 0)  -->
<svg version="1.1" id="Capa_1" xmlns="http://www.w3.org/2000/svg" xmlns:xlink="http://www.w3.org/1999/xlink" x="0px" y="0px"
	 viewBox="0 0 512 512" style="enable-background:new 0 0 512 512;" xml:space="preserve">
<g>
	<g>
		<path d="M483.603,0H30.291C15.016,0,2.589,12.427,2.589,27.702v229.721h15.11V27.702c0-6.944,5.648-12.592,12.592-12.592h453.311
			c6.944,0,12.592,5.648,12.592,12.592v268.461H253.374v15.11h242.821v54.901c0,6.944-5.648,12.592-12.592,12.592H314.87H199.024
			h-6.99v15.11h6.99v36.713c0,14.257-9.72,26.376-23.639,29.468c-12.772,2.838-21.692,13.958-21.692,27.043v21.615h206.508v-21.615
			c0-13.084-8.92-24.204-21.692-27.043c-13.918-3.093-23.639-15.211-23.639-29.468v-36.713h168.733
			c15.276,0,27.702-12.427,27.702-27.702v-70.011V27.702C511.305,12.427,498.878,0,483.603,0z M335.231,474.809
			c5.805,1.289,9.86,6.344,9.86,12.292v6.505H168.803v-6.505c0-5.947,4.055-11.002,9.86-12.292
			c20.885-4.641,35.471-22.825,35.471-44.219v-36.713h85.625v36.713C299.76,451.985,314.345,470.167,335.231,474.809z"/>
	</g>
</g>
<g>
	<g>
		<path d="M241.16,143.368c-13.679-7.336-30.771-2.175-38.103,11.499l-21.68,40.429l-29.044-15.575l-3.936,7.342l-0.436,0.813
			l-29.052-15.58l-8.746,16.307l-29.043-15.575l-49.321,91.974l-5.533,56.621L0.695,363.007l12.854,7.943l27.413-44.366
			l5.581-57.103l40.753-75.993l15.728,8.434l-13.92,25.957l13.316,7.14l13.919-25.957l8.746-16.307l15.735,8.438l-22.665,42.266
			l13.316,7.14l22.665-42.265l0.001,0.001l4.372-8.155l15.728,8.434L147.2,259.032l13.316,7.14l27.036-50.418h0.001l28.821-53.747
			c3.395-6.332,11.314-8.72,17.647-5.324s8.722,11.311,5.326,17.643l-58.557,109.193l31.494,16.889l-23.825,44.431l-53.856,30.833
			L60.019,504.425L73.094,512l72.547-125.234l54.087-30.965l33.014-61.569l-31.494-16.889l51.413-95.875
			C259.994,167.793,254.835,150.702,241.16,143.368z"/>
	</g>
</g>
<g>
	<g>
		<path d="M300.306,131.652c-12.115-37.238-52.27-57.682-89.506-45.565c-37.238,12.113-57.679,52.266-45.565,89.506l14.369-4.675
			c-9.536-29.316,6.556-60.924,35.871-70.462c29.316-9.535,60.925,6.556,70.462,35.871c9.536,29.316-6.556,60.924-35.871,70.462
			l4.675,14.369C291.979,209.044,312.42,168.892,300.306,131.652z"/>
	</g>
</g>
<g>
	<g>
		<path d="M323.917,155.488c-0.094,4.657-0.543,9.325-1.335,13.874l14.886,2.593c0.924-5.304,1.448-10.742,1.555-16.164
			L323.917,155.488z"/>
	</g>
</g>
<g>
	<g>
		<path d="M305.193,209.005c-2.82,3.681-5.947,7.178-9.296,10.392l10.463,10.902c3.901-3.745,7.544-7.818,10.828-12.107
			L305.193,209.005z"/>
	</g>
</g>
<g>
	<g>
		<path d="M266.853,52.931l-4.844,14.314c4.389,1.486,8.703,3.325,12.82,5.47l6.981-13.401
			C277.007,56.811,271.975,54.664,266.853,52.931z"/>
	</g>
</g>
<g>
	<g>
		<path d="M318.845,183.742c-1.531,4.377-3.416,8.669-5.602,12.761l13.327,7.12c2.552-4.775,4.751-9.784,6.537-14.891
			L318.845,183.742z"/>
	</g>
</g>
<g>
	<g>
		<path d="M216.582,48.573c-5.351,0.818-10.677,2.057-15.83,3.683l4.547,14.41c4.416-1.394,8.98-2.456,13.565-3.156L216.582,48.573z
			"/>
	</g>
</g>
<g>
	<g>
		<path d="M233.856,47.351l-0.151,15.11c4.659,0.046,9.333,0.447,13.89,1.193l2.438-14.912
			C244.721,47.873,239.279,47.406,233.856,47.351z"/>
	</g>
</g>
<g>
	<g>
		<path d="M184.706,58.812c-4.811,2.445-9.479,5.284-13.874,8.441l8.814,12.274c3.772-2.709,7.777-5.145,11.903-7.241
			L184.706,58.812z"/>
	</g>
</g>
<g>
	<g>
		<path d="M334.459,122.642l-14.456,4.399c1.348,4.43,2.363,9.005,3.016,13.595l14.959-2.127
			C337.217,133.153,336.033,127.814,334.459,122.642z"/>
	</g>
</g>
<g>
	<g>
		<path d="M258.46,241.12c-4.445,1.303-9.031,2.271-13.63,2.877l1.977,14.981c5.365-0.708,10.715-1.837,15.9-3.358L258.46,241.12z"
			/>
	</g>
</g>
<g>
	<g>
		<path d="M157.631,78.465c-3.824,3.821-7.384,7.968-10.582,12.324l12.181,8.942c2.745-3.74,5.801-7.299,9.083-10.579
			L157.631,78.465z"/>
	</g>
</g>
<g>
	<g>
		<path d="M127.721,137.432c-0.814,5.323-1.227,10.77-1.227,16.19h15.11c0-4.658,0.355-9.336,1.054-13.906L127.721,137.432z"/>
	</g>
</g>
<g>
	<g>
		<path d="M137.964,105.55c-2.452,4.826-4.547,9.881-6.228,15.021l14.363,4.696c1.44-4.406,3.236-8.738,5.337-12.874L137.964,105.55
			z"/>
	</g>
</g>
<g>
	<g>
		<path d="M319.769,92.569l-12.361,8.689c2.669,3.797,5.064,7.826,7.118,11.975l13.542-6.705
			C325.672,101.691,322.88,96.995,319.769,92.569z"/>
	</g>
</g>
<g>
	<g>
		<path d="M284.37,228.79c-3.826,2.631-7.878,4.984-12.046,6.995l6.564,13.609c4.861-2.344,9.587-5.088,14.045-8.155L284.37,228.79z
			"/>
	</g>
</g>
<g>
	<g>
		<path d="M296.475,68.548l-9.064,12.09c3.711,2.782,7.24,5.874,10.486,9.189l10.796-10.573
			C304.909,75.392,300.798,71.79,296.475,68.548z"/>
	</g>
</g>
<g>
</g>
<g>
</g>
<g>
</g>
<g>
</g>
<g>
</g>
<g>
</g>
<g>
</g>
<g>
</g>
<g>
</g>
<g>
</g>
<g>
</g>
<g>
</g>
<g>
</g>
<g>
</g>
<g>
</g>
</svg>
